# xmcd
#
# Track frame offsets:
#	150
#	16057
#	42990
#	63777
#	89927
#	108987
#	126891
#	142685
#	173488
#	191319
#
# Disc length: 2747 seconds
#
# Revision: 2
# Processed by: cddbd v1.5.2PL0 Copyright (c) Steve Scherf et al.
# Submitted via: audiograbber 1.83.01
#
DISCID=780ab90a
DTITLE=Thirsty Mamas - 3past9
DYEAR=2011
DGENRE=
TTITLE0=Highway Man
TTITLE1=Blues Paddy
TTITLE2=Midnight Ramlding Man
TTITLE3=Midnight Train
TTITLE4=Automatic Girl
TTITLE5=Do I Move You
TTITLE6=Mecury Blues
TTITLE7=Magic Spell
TTITLE8=Knocking on your Door
TTITLE9=Rains on me
EXTD=
EXTT0=3:29
EXTT1=5:57
EXTT2=4:31
EXTT3=5:47
EXTT4=4:12
EXTT5=3:49
EXTT6=3:39
EXTT7=6:49
EXTT8=3:56
EXTT9=3:17
PLAYORDER=
